<!--?xml version="1.0" standalone="no"?-->
              <svg id="sw-js-blob-svg" viewBox="0 0 100 100" xmlns="http://www.w3.org/2000/svg" version="1.1">
                    <defs> 
                        <linearGradient id="sw-gradient" x1="0" x2="1" y1="1" y2="0">
                            <stop id="stop1" stop-color="rgba(11.523, 60.022, 23.134, 1)" offset="0%"></stop>
                            <stop id="stop2" stop-color="rgba(45.633, 171.584, 54.025, 1)" offset="100%"></stop>
                        </linearGradient>
                    </defs>
                <path fill="url(#sw-gradient)" d="M23.6,-26C31.4,-21.5,39.3,-14.9,40.9,-7C42.6,1,38.2,10.2,32.2,16.6C26.2,23.1,18.6,26.6,10.2,30.9C1.9,35.2,-7.3,40.1,-14.3,38.1C-21.4,36.1,-26.4,27.1,-29.5,18.6C-32.6,10.1,-33.8,1.9,-33.2,-6.7C-32.7,-15.3,-30.4,-24.4,-24.5,-29.2C-18.7,-34.1,-9.4,-34.7,-0.7,-33.8C7.9,-32.9,15.7,-30.5,23.6,-26Z" width="100%" height="100%" transform="translate(50 50)" stroke-width="0" style="transition: all 0.3s ease 0s;" stroke="url(#sw-gradient)"></path>
              </svg>